# xmcd CD database file
#
# Track frame offsets:
#	150
#	16327
#	32947
#	50563
#	69182
#	95412
#	108751
#	124731
#	143166
#	160453
#	181177
#
# Disc length: 2550 seconds
#
# Revision: 0
# Processed by: cddbd v1.5.1PL0 Copyright (c) Steve Scherf et al.
# Submitted via: CDex 1.51
#
DISCID=8d09f40b
DTITLE=78 Saab - Crossed Lines
DYEAR=2004
DGENRE=Rock
TTITLE0=No Illusions
TTITLE1=Cops
TTITLE2=Beat Of Your Drum
TTITLE3=Come On
TTITLE4=All A Lie
TTITLE5=The City Is Humming
TTITLE6=High Above The World
TTITLE7=We All Get By
TTITLE8=Saviour
TTITLE9=You And Your Friends
TTITLE10=Know What You Want
EXTD=YEAR: 2004
EXTT0=
EXTT1=
EXTT2=
EXTT3=
EXTT4=
EXTT5=
EXTT6=
EXTT7=
EXTT8=
EXTT9=
EXTT10=
PLAYORDER=
